<?xml version="1.0" standalone="no"?>
<!DOCTYPE svg PUBLIC "-//W3C//DTD SVG 20010904//EN"
 "http://www.w3.org/TR/2001/REC-SVG-20010904/DTD/svg10.dtd">
<svg version="1.0" xmlns="http://www.w3.org/2000/svg"
 width="327.000000pt" height="327.000000pt" viewBox="0 0 327.000000 327.000000"
 preserveAspectRatio="xMidYMid meet">
<metadata>
Created by potrace 1.11, written by Peter Selinger 2001-2013
</metadata>
<g transform="translate(0.000000,327.000000) scale(0.100000,-0.100000)"
fill="#000000" stroke="none">
<path d="M1531 3188 c-221 -579 -1002 -2584 -1027 -2635 -57 -119 -154 -212
-255 -246 l-44 -15 -3 -127 -3 -126 63 8 c35 4 253 7 486 7 l423 -2 -3 127 -3
126 -108 7 c-135 9 -178 21 -216 58 -72 72 -49 189 122 630 l64 165 449 3 449
2 99 -267 c198 -534 200 -540 148 -567 -21 -11 -203 -36 -264 -36 -5 0 -8 -55
-8 -122 l0 -123 580 0 581 0 -3 124 -3 124 -55 12 c-94 19 -155 64 -204 148
-21 37 -1035 2639 -1040 2670 -1 7 -10 27 -19 45 l-18 32 -90 0 c-84 0 -90 -1
-98 -22z m286 -1754 c-2 -2 -157 -3 -345 -2 l-340 3 164 430 c90 237 169 441
175 455 10 22 29 -23 181 -428 93 -250 168 -455 165 -458z"/>
</g>
</svg>
